<svg id="svg" version="1.1" width="20" height="37.5" viewBox="0 0 400 752.9411764705883" xmlns="http://www.w3.org/2000/svg" xmlns:xlink="http://www.w3.org/1999/xlink" ><g id="svgg"><path id="path0" d="M15.200 148.856 C 15.200 172.059,15.247 173.747,15.900 174.243 C 16.476 174.680,30.088 174.779,92.800 174.800 C 152.647 174.820,169.139 174.932,169.649 175.320 C 170.007 175.592,170.681 176.441,171.148 177.207 L 171.997 178.600 171.999 388.051 L 172.000 597.503 173.100 597.956 C 173.892 598.283,181.932 598.380,201.800 598.305 L 229.400 598.200 229.600 388.182 C 229.793 185.620,229.826 178.125,230.531 177.049 C 232.097 174.659,227.126 174.800,309.944 174.800 C 378.850 174.800,385.937 174.741,386.157 174.167 C 386.291 173.819,386.400 162.389,386.400 148.767 L 386.400 124.000 200.800 124.000 L 15.200 124.000 15.200 148.856 " stroke="none" fill="#000000" fill-rule="evenodd"></path><path id="path1" d="M14.700 123.632 C 14.045 124.014,14.000 125.671,14.000 149.426 L 14.000 174.812 15.300 175.604 C 16.584 176.387,17.541 176.397,92.671 176.399 C 176.346 176.400,169.487 176.198,170.433 178.688 C 170.654 179.267,170.802 263.068,170.806 388.726 C 170.809 503.717,170.944 598.005,171.106 598.255 C 172.196 599.943,173.196 600.000,201.618 600.000 L 228.738 600.000 229.969 598.769 L 231.200 597.538 231.200 388.039 L 231.200 178.539 232.232 177.570 L 233.264 176.600 309.548 176.497 L 385.831 176.394 386.516 175.235 C 387.392 173.752,387.587 124.547,386.720 123.680 C 386.086 123.046,15.789 122.998,14.700 123.632 M386.400 148.767 C 386.400 162.389,386.291 173.819,386.157 174.167 C 385.937 174.741,378.850 174.800,309.944 174.800 C 227.126 174.800,232.097 174.659,230.531 177.049 C 229.826 178.125,229.793 185.620,229.600 388.182 L 229.400 598.200 201.800 598.305 C 181.932 598.380,173.892 598.283,173.100 597.956 L 172.000 597.503 171.999 388.051 L 171.997 178.600 171.148 177.207 C 170.681 176.441,170.007 175.592,169.649 175.320 C 169.139 174.932,152.647 174.820,92.800 174.800 C 30.088 174.779,16.476 174.680,15.900 174.243 C 15.247 173.747,15.200 172.059,15.200 148.856 L 15.200 124.000 200.800 124.000 L 386.400 124.000 386.400 148.767 " stroke="none" fill="#575757" fill-rule="evenodd"></path><path id="path2" d="M14.400 123.318 L 13.400 123.824 13.297 148.945 C 13.181 177.270,13.107 176.481,15.922 176.947 C 16.735 177.081,51.452 177.193,93.071 177.196 C 161.327 177.200,168.804 177.262,169.371 177.829 C 169.941 178.398,170.000 198.022,170.000 387.803 C 170.000 513.641,170.146 597.532,170.367 598.112 C 171.293 600.549,169.316 600.400,200.767 600.400 C 232.236 600.400,230.255 600.546,231.537 598.126 C 231.886 597.468,232.000 545.657,232.000 387.990 L 232.000 178.728 232.900 177.977 C 233.773 177.249,236.061 177.226,309.800 177.207 C 351.600 177.196,385.980 177.056,386.200 176.894 C 387.560 175.895,387.600 175.097,387.600 149.220 C 387.600 124.327,387.579 123.617,386.826 123.214 C 385.588 122.552,15.711 122.654,14.400 123.318 M386.720 123.680 C 387.587 124.547,387.392 173.752,386.516 175.235 L 385.831 176.394 309.548 176.497 L 233.264 176.600 232.232 177.570 L 231.200 178.539 231.200 388.039 L 231.200 597.538 229.969 598.769 L 228.738 600.000 201.618 600.000 C 173.196 600.000,172.196 599.943,171.106 598.255 C 170.944 598.005,170.809 503.717,170.806 388.726 C 170.802 263.068,170.654 179.267,170.433 178.688 C 169.487 176.198,176.346 176.400,92.671 176.399 C 17.541 176.397,16.584 176.387,15.300 175.604 L 14.000 174.812 14.000 149.426 C 14.000 125.671,14.045 124.014,14.700 123.632 C 15.789 122.998,386.086 123.046,386.720 123.680 " stroke="none" fill="#7f7f7f" fill-rule="evenodd"></path><path id="path3" d="M14.000 122.296 C 12.429 122.907,12.426 122.968,12.413 149.440 C 12.400 175.599,12.483 177.154,13.928 177.868 C 14.298 178.051,49.340 178.290,91.800 178.400 L 169.000 178.600 169.200 389.286 C 169.385 584.486,169.449 600.020,170.061 600.632 C 171.273 601.845,174.042 601.965,201.123 601.983 C 230.004 602.001,231.101 601.934,232.326 600.064 C 232.955 599.104,233.013 585.034,233.200 388.818 L 233.400 178.600 310.000 178.400 C 352.130 178.290,386.840 178.045,387.133 177.856 C 389.136 176.564,389.200 175.665,389.200 149.002 L 389.200 124.071 387.969 123.036 L 386.739 122.000 200.669 122.032 C 98.331 122.049,14.330 122.168,14.000 122.296 M386.826 123.214 C 387.579 123.617,387.600 124.327,387.600 149.220 C 387.600 175.097,387.560 175.895,386.200 176.894 C 385.980 177.056,351.600 177.196,309.800 177.207 C 236.061 177.226,233.773 177.249,232.900 177.977 L 232.000 178.728 232.000 387.990 C 232.000 545.657,231.886 597.468,231.537 598.126 C 230.255 600.546,232.236 600.400,200.767 600.400 C 169.316 600.400,171.293 600.549,170.367 598.112 C 170.146 597.532,170.000 513.641,170.000 387.803 C 170.000 198.022,169.941 178.398,169.371 177.829 C 168.804 177.262,161.327 177.200,93.071 177.196 C 51.452 177.193,16.735 177.081,15.922 176.947 C 13.107 176.481,13.181 177.270,13.297 148.945 L 13.400 123.824 14.400 123.318 C 15.711 122.654,385.588 122.552,386.826 123.214 " stroke="none" fill="#a7a7a7" fill-rule="evenodd"></path><path id="path4" d="M0.000 376.400 L 0.000 752.800 200.000 752.800 L 400.000 752.800 400.000 376.400 L 400.000 0.000 200.000 0.000 L 0.000 0.000 0.000 376.400 M387.969 123.036 L 389.200 124.071 389.200 149.002 C 389.200 175.665,389.136 176.564,387.133 177.856 C 386.840 178.045,352.130 178.290,310.000 178.400 L 233.400 178.600 233.200 388.818 C 233.013 585.034,232.955 599.104,232.326 600.064 C 231.101 601.934,230.004 602.001,201.123 601.983 C 174.042 601.965,171.273 601.845,170.061 600.632 C 169.449 600.020,169.385 584.486,169.200 389.286 L 169.000 178.600 91.800 178.400 C 49.340 178.290,14.298 178.051,13.928 177.868 C 12.483 177.154,12.400 175.599,12.413 149.440 C 12.426 122.968,12.429 122.907,14.000 122.296 C 14.330 122.168,98.331 122.049,200.669 122.032 L 386.739 122.000 387.969 123.036 " stroke="none" fill="#ffffff" fill-rule="evenodd"></path></g></svg>